<?xml version="1.0" encoding="UTF-8" standalone="no"?>
<!DOCTYPE svg PUBLIC "-//W3C//DTD SVG 1.1//EN" "http://www.w3.org/Graphics/SVG/1.1/DTD/svg11.dtd">
<svg width="100%" height="100%" viewBox="0 0 375 375" version="1.1" xmlns="http://www.w3.org/2000/svg" xmlns:xlink="http://www.w3.org/1999/xlink" xml:space="preserve" xmlns:serif="http://www.serif.com/" style="fill-rule:evenodd;clip-rule:evenodd;stroke-linejoin:round;stroke-miterlimit:2;">
    <g transform="matrix(1,0,0,1,-1681.61,-62.5)">
        <g id="Page-2" serif:id="Page 2" transform="matrix(1.17187,0,0,2.84091,1681.61,62.5)">
            <rect x="0" y="0" width="320" height="132" style="fill:none;"/>
            <g id="Layer-1" serif:id="Layer 1" transform="matrix(3.55556,0,0,1.46667,0,0)">
                <g transform="matrix(0.804301,0,0,0.804301,43.3624,42.8356)">
                    <path d="M0,5.382C-0.582,5.382 -3.059,3.596 -5.614,3.127C-10.463,2.233 -23.484,5.722 -23.484,5.722L-23.495,5.819L-23.495,-5.226C-23.495,-7.565 -21.338,-9.618 -18.682,-9.618L-8.37,-9.618C-8.339,-9.618 -8.495,-9.457 -8.495,-9.457L-8.495,-10.524C-8.495,-13.289 -5.984,-15.618 -3.15,-15.618L7.846,-15.618C10.678,-15.618 12.505,-13.289 12.505,-10.524L12.505,-9.451C12.505,-9.454 13.124,-9.618 13.199,-9.618L23.09,-9.618C25.638,-9.618 27.505,-7.565 27.505,-5.226L27.505,6.007L27.469,5.807C27.469,5.807 14.5,2.233 9.649,3.127C7.095,3.596 4.667,5.382 4.085,5.382L0,5.382ZM-14.298,-22.49C-11.25,-22.49 -8.78,-20.021 -8.78,-16.973C-8.78,-13.927 -11.25,-11.456 -14.298,-11.456C-17.344,-11.456 -19.813,-13.927 -19.813,-16.973C-19.813,-20.021 -17.344,-22.49 -14.298,-22.49M2.175,-29.707C5.529,-29.707 8.248,-26.989 8.248,-23.635C8.248,-20.28 5.529,-17.562 2.175,-17.562C-1.179,-17.562 -3.898,-20.28 -3.898,-23.635C-3.898,-26.989 -1.179,-29.707 2.175,-29.707M18.929,-22.49C21.977,-22.49 24.447,-20.021 24.447,-16.973C24.447,-13.927 21.977,-11.456 18.929,-11.456C15.883,-11.456 13.413,-13.927 13.413,-16.973C13.413,-20.021 15.883,-22.49 18.929,-22.49M13.748,29.71C7.614,30.306 3.505,34.593 3.505,34.593L3.505,9.444C3.505,9.444 6.551,7.47 9.474,6.932C14.323,6.039 27.488,9.444 27.488,9.444L27.664,9.644L39.875,27.687C44.618,20.52 47.393,11.929 47.393,2.691C47.393,-22.36 27.089,-42.669 2.037,-42.669C-23.015,-42.669 -43.321,-22.36 -43.321,2.691C-43.321,11.924 -40.558,20.512 -35.82,27.677L-23.475,9.456L-23.451,9.444C-23.451,9.444 -10.775,6.039 -5.926,6.932C-3.004,7.47 -0.495,9.444 -0.495,9.444L-0.495,34.593C-0.495,34.593 -4.063,30.306 -10.196,29.71C-15.629,29.185 -25.942,30.691 -32.882,31.861C-24.561,41.758 -11.995,48.051 1.948,48.051C15.89,48.051 28.328,41.759 36.648,31.862C29.717,30.693 19.184,29.184 13.748,29.71" style="fill:rgb(3,4,4);fill-rule:nonzero;"/>
                </g>
                <g transform="matrix(0.877031,0,0,0.877031,45,87.3908)">
                    <path d="M0,-96.669C-26.652,-96.669 -48.335,-74.986 -48.335,-48.335C-48.335,-21.683 -26.652,-0 0,-0C26.651,-0 48.334,-21.683 48.334,-48.335C48.334,-74.986 26.651,-96.669 0,-96.669M0,2.975C-6.927,2.975 -13.646,1.618 -19.973,-1.058C-26.083,-3.643 -31.569,-7.342 -36.281,-12.054C-40.993,-16.765 -44.692,-22.252 -47.277,-28.362C-49.953,-34.689 -51.309,-41.408 -51.309,-48.335C-51.309,-55.261 -49.953,-61.981 -47.277,-68.307C-44.692,-74.417 -40.993,-79.904 -36.281,-84.615C-31.569,-89.327 -26.083,-93.026 -19.973,-95.61C-13.646,-98.286 -6.927,-99.644 0,-99.644C6.926,-99.644 13.646,-98.286 19.972,-95.61C26.082,-93.026 31.569,-89.327 36.281,-84.615C40.992,-79.904 44.692,-74.417 47.276,-68.307C49.952,-61.981 51.309,-55.261 51.309,-48.335C51.309,-41.408 49.952,-34.689 47.276,-28.362C44.692,-22.252 40.992,-16.765 36.281,-12.054C31.569,-7.342 26.082,-3.643 19.972,-1.058C13.646,1.618 6.926,2.975 0,2.975" style="fill:rgb(3,4,4);fill-rule:nonzero;"/>
                </g>
            </g>
        </g>
    </g>
</svg>
