<?xml version="1.0" encoding="UTF-8" standalone="no"?>
<!DOCTYPE svg PUBLIC "-//W3C//DTD SVG 1.1//EN" "http://www.w3.org/Graphics/SVG/1.1/DTD/svg11.dtd">
<svg width="100%" height="100%" viewBox="0 0 2898 169" version="1.1" xmlns="http://www.w3.org/2000/svg" xmlns:xlink="http://www.w3.org/1999/xlink" xml:space="preserve" xmlns:serif="http://www.serif.com/" style="fill-rule:evenodd;clip-rule:evenodd;stroke-linejoin:round;stroke-miterlimit:2;">
    <g transform="matrix(1,0,0,1,0,-402.013)">
        <g transform="matrix(1.02426,0,0,0.26294,3648.7,286.976)">
            <rect x="-3562.27" y="437.5" width="2828.82" height="639.911" style="fill:none;"/>
            <g transform="matrix(3.50799,0,0,10.5238,-8394.93,-6961.35)">
                <path d="M2176.4,756.238C2176.36,756.547 2176.16,758.324 2174.84,759.589C2174.43,759.979 2173.97,760.277 2173.47,760.437C2172.64,760.712 2172.62,760.681 2171.77,760.517C2154.01,757.121 2134.12,753.991 2130.84,753.475C2075.64,744.79 2027.19,740.31 2024.88,740.078C1995.33,737.102 1976.86,735.865 1972.28,735.474C1958.11,734.265 1949.12,733.596 1930.54,732.287C1916.32,731.285 1900.12,730.255 1873.87,729.052C1852.45,728.07 1836.28,727.666 1817.96,727.338C1815.99,727.303 1808.73,727.172 1793.24,727.062C1783.71,726.994 1783.71,727.044 1774.18,727.021C1772.38,727.017 1766.5,727.003 1751.74,727.116C1749.59,727.133 1740.92,727.199 1724.82,727.527C1708.41,727.861 1691.68,728.417 1666.01,729.693C1644.73,730.751 1629.17,731.861 1614.45,732.909C1596.1,734.215 1584.63,735.268 1581.51,735.507C1568.63,736.496 1553.92,737.712 1527.66,740.368C1467.11,746.493 1415.76,754.776 1386.37,760.432C1385.81,760.54 1385.81,760.545 1385.79,760.544C1385.28,760.51 1384.74,760.603 1384.24,760.44C1384.01,760.365 1382.68,759.933 1381.85,758.15C1381.72,757.879 1380.99,756.311 1381.39,754.223C1381.78,752.201 1382.95,751.278 1383.15,751.118C1383.89,750.535 1383.91,750.559 1384.77,750.39C1393.76,748.617 1442.58,739.513 1507.1,729.435C1532.24,725.509 1542.57,724.068 1549.02,723.151C1563.94,721.031 1575.39,719.501 1580.48,718.824C1581.9,718.634 1605.61,715.726 1624.07,713.856C1646.52,711.583 1663.62,710.173 1672.95,709.433C1680.86,708.805 1692.38,708.058 1694.07,707.949C1697.01,707.758 1713.59,706.683 1730.88,705.929C1731.41,705.906 1747.82,705.244 1759.43,705.046C1772.99,704.813 1779.21,704.852 1780.93,704.862C1796.21,704.957 1804.8,705.215 1812.65,705.468C1815.27,705.552 1828.61,705.925 1852.18,707.318C1877.29,708.802 1893.46,710.232 1896.72,710.509C1907.89,711.458 1926.83,713.176 1942.13,714.845C1956.56,716.42 1968.16,717.812 1973.32,718.435C1976,718.759 2007.62,722.996 2033.27,726.911C2048.31,729.207 2095.39,736.417 2151.4,746.422C2153.14,746.732 2165.75,748.984 2173.08,750.418C2173.32,750.465 2174.69,750.733 2175.66,752.442C2176.64,754.152 2176.43,755.928 2176.4,756.238Z" style="fill:url(#_Linear1);"/>
            </g>
        </g>
    </g>
    <defs>
        <linearGradient id="_Linear1" x1="0" y1="0" x2="1" y2="0" gradientUnits="userSpaceOnUse" gradientTransform="matrix(787.29,0,0,39.5416,1385.21,735.711)"><stop offset="0" style="stop-color:rgb(255,116,72);stop-opacity:1"/><stop offset="0.43" style="stop-color:rgb(255,72,72);stop-opacity:1"/><stop offset="0.73" style="stop-color:rgb(140,72,206);stop-opacity:1"/><stop offset="1" style="stop-color:rgb(98,72,255);stop-opacity:1"/></linearGradient>
    </defs>
</svg>
